<?xml version="1.0" encoding="utf-8"?>
<!-- Generator: Adobe Illustrator 27.5.0, SVG Export Plug-In . SVG Version: 6.00 Build 0)  -->
<svg version="1.1" id="Слой_2" xmlns="http://www.w3.org/2000/svg" xmlns:xlink="http://www.w3.org/1999/xlink" x="0px" y="0px"
	 viewBox="0 0 3800 2000" style="enable-background:new 0 0 3800 2000;" xml:space="preserve">
<rect style="fill:#FFFFFF;" width="3800" height="2000"/>
<g>
	<path style="fill:#EBF2F9;" d="M3190.295,741.021c-125.433-106.995-276.65-752.256-794.671-416.185
		c-267.638,173.633-718.934-149.063-1092.473-37.603C960.1,389.594,927.032,726.843,960.225,836.736
		c67.049,221.982-141.604,255.016-335.165,350.391c-303.62,149.605-80.354,675.376,206.478,677.89
		c286.832,2.514,2024.518-5.006,2024.518-5.006s416.684,1.054,589.962-228.923
		C3632.484,1383.607,3514.283,1017.387,3190.295,741.021z"/>
	<g>
		<g>
			
				<rect x="2661.72" y="344.028" transform="matrix(-1 -1.224647e-16 1.224647e-16 -1 6037.5508 1887.8745)" style="fill:#AED3FF;" width="714.111" height="1199.819"/>
			<rect x="2639.336" y="344.028" style="fill:#D2E4FF;" width="714.111" height="1199.819"/>
			<rect x="2687.969" y="411.054" style="fill:#F3F9FF;" width="618.542" height="417.917"/>
			<rect x="2963.877" y="1221.147" style="fill:#F3F9FF;" width="331.969" height="223.135"/>
			<path style="fill:#EE9849;" d="M2713.473,624.354c0,0,105.61-13.158,170.145,46.294c64.535,59.451,184.757,5.267,233.161,0
				c84.161-9.159,150.14,18.375,169.708,48.642v90.799h-573.014V624.354z"/>
			<rect x="2795.332" y="478.227" style="fill:#A6C7F9;" width="4.424" height="141.785"/>
			<rect x="2969.006" y="539.068" style="fill:#A6C7F9;" width="4.425" height="141.785"/>
			<rect x="3148.211" y="506.988" style="fill:#A6C7F9;" width="4.424" height="141.785"/>
			<path style="fill:#A6C7F9;" d="M2849.167,499.982h-33.924c-2.028,0-3.688-1.659-3.688-3.688l0,0c0-2.028,1.659-3.687,3.688-3.687
				h33.924c2.027,0,3.687,1.659,3.687,3.687l0,0C2852.854,498.323,2851.194,499.982,2849.167,499.982z"/>
			<path style="fill:#A6C7F9;" d="M2849.167,513.257h-33.924c-2.028,0-3.688-1.659-3.688-3.687l0,0c0-2.028,1.659-3.687,3.688-3.687
				h33.924c2.027,0,3.687,1.659,3.687,3.687l0,0C2852.854,511.598,2851.194,513.257,2849.167,513.257z"/>
			<path style="fill:#A6C7F9;" d="M3020.26,572.254h-33.924c-2.027,0-3.688-1.659-3.688-3.687l0,0c0-2.028,1.66-3.688,3.688-3.688
				h33.924c2.027,0,3.688,1.659,3.688,3.688l0,0C3023.947,570.595,3022.287,572.254,3020.26,572.254z"/>
			<path style="fill:#A6C7F9;" d="M3020.26,585.256h-33.924c-2.027,0-3.688-1.659-3.688-3.688l0,0c0-2.028,1.66-3.688,3.688-3.688
				h33.924c2.027,0,3.688,1.659,3.688,3.688l0,0C3023.947,583.597,3022.287,585.256,3020.26,585.256z"/>
			<path style="fill:#A6C7F9;" d="M3202.414,518.788h-33.924c-2.027,0-3.687-1.66-3.687-3.688l0,0c0-2.028,1.659-3.688,3.687-3.688
				h33.924c2.028,0,3.688,1.66,3.688,3.688l0,0C3206.102,517.128,3204.442,518.788,3202.414,518.788z"/>
			<path style="fill:#A6C7F9;" d="M3202.414,531.789h-33.924c-2.027,0-3.687-1.659-3.687-3.688l0,0c0-2.028,1.659-3.687,3.687-3.687
				h33.924c2.028,0,3.688,1.659,3.688,3.687l0,0C3206.102,530.13,3204.442,531.789,3202.414,531.789z"/>
			<g>
				<path style="fill:#F3F9FF;" d="M3184.363,935.871c0-33.73,27.344-61.074,61.074-61.074c33.729,0,61.073,27.344,61.073,61.074
					s-27.344,61.074-61.073,61.074C3211.707,996.944,3184.363,969.601,3184.363,935.871z"/>
				<path style="fill:#C65447;" d="M3301.333,935.87c0,30.87-25.026,55.896-55.896,55.896c-14.573,0-27.844-5.572-37.784-14.705
					l37.784-41.191v-55.896C3276.307,879.974,3301.333,905,3301.333,935.87z"/>
				<path style="fill:#A6C7F9;" d="M3224.148,926.023h-20.072c-0.925,0-1.682-0.757-1.682-1.682l0,0
					c0-0.925,0.757-1.681,1.682-1.681h20.072c0.925,0,1.682,0.756,1.682,1.681l0,0
					C3225.83,925.266,3225.073,926.023,3224.148,926.023z"/>
			</g>
			<g>
				<circle style="fill:#F3F9FF;" cx="3093.803" cy="935.871" r="61.074"/>
				<path style="fill:#E57970;" d="M3093.806,935.87l34.346,44.101c-9.475,7.396-21.395,11.795-34.346,11.795
					c-30.878,0-55.903-25.026-55.903-55.896c0-30.87,25.025-55.896,55.903-55.896c29.146,0,53.086,22.31,55.663,50.79
					L3093.806,935.87z"/>
				<path style="fill:#A6C7F9;" d="M3136.846,949.69h-13.969c-0.924,0-1.681-0.756-1.681-1.681l0,0c0-0.925,0.757-1.682,1.681-1.682
					h13.969c0.925,0,1.682,0.757,1.682,1.682l0,0C3138.527,948.934,3137.771,949.69,3136.846,949.69z"/>
			</g>
			<g>
				<path style="fill:#F3F9FF;" d="M3184.363,1104.083c0-33.729,27.344-61.073,61.074-61.073c33.729,0,61.073,27.344,61.073,61.073
					c0,33.73-27.344,61.074-61.073,61.074C3211.707,1165.157,3184.363,1137.813,3184.363,1104.083z"/>
				<path style="fill:#EE9849;" d="M3301.333,1104.082c0,30.87-25.026,55.896-55.896,55.896c-14.573,0-27.844-5.572-37.784-14.705
					l37.784-41.191v-55.896C3276.307,1048.187,3301.333,1073.213,3301.333,1104.082z"/>
				<path style="fill:#A6C7F9;" d="M3224.148,1094.235h-20.072c-0.925,0-1.682-0.757-1.682-1.682l0,0
					c0-0.925,0.757-1.682,1.682-1.682h20.072c0.925,0,1.682,0.757,1.682,1.682l0,0
					C3225.83,1093.479,3225.073,1094.235,3224.148,1094.235z"/>
			</g>
			<g>
				<path style="fill:#F3F9FF;" d="M3032.729,1104.083c0-33.729,27.344-61.073,61.074-61.073c33.729,0,61.073,27.344,61.073,61.073
					c0,33.73-27.344,61.074-61.073,61.074C3060.073,1165.157,3032.729,1137.813,3032.729,1104.083z"/>
				<path style="fill:#C65447;" d="M3149.469,1098.977c-2.577-28.479-26.517-50.79-55.663-50.79
					c-30.878,0-55.903,25.026-55.903,55.896c0,30.87,25.025,55.896,55.903,55.896c12.951,0,24.87-4.4,34.346-11.795l-34.346-44.102
					L3149.469,1098.977z"/>
				<path style="fill:#A6C7F9;" d="M3136.846,1117.903h-13.969c-0.924,0-1.681-0.757-1.681-1.682l0,0
					c0-0.925,0.757-1.681,1.681-1.681h13.969c0.925,0,1.682,0.756,1.682,1.681l0,0
					C3138.527,1117.146,3137.771,1117.903,3136.846,1117.903z"/>
			</g>
			<g>
				<polygon style="fill:#A6C7F9;" points="3281.536,1428.69 2976.827,1428.69 2976.827,1248.647 2980.616,1248.647 
					2980.616,1424.901 3281.536,1424.901 				"/>
			</g>
			<g>
				<path style="fill:#A6C7F9;" d="M3072.082,1363.582c-37.301-29.691-76.969,0-76.969,0v50.763h278.861v-131.217
					C3198.19,1285.044,3109.381,1393.273,3072.082,1363.582z"/>
				<path style="fill:#A6C7F9;" d="M2998.306,1262.376h129.94c1.756,0,3.192-1.437,3.192-3.192s-1.437-3.192-3.192-3.192h-129.94
					c-1.756,0-3.192,1.437-3.192,3.192S2996.55,1262.376,2998.306,1262.376z"/>
				<path style="fill:#A6C7F9;" d="M2998.306,1277.978h129.94c1.756,0,3.192-1.437,3.192-3.193c0-1.756-1.437-3.192-3.192-3.192
					h-129.94c-1.756,0-3.192,1.437-3.192,3.192C2995.113,1276.541,2996.55,1277.978,2998.306,1277.978z"/>
				<path style="fill:#A6C7F9;" d="M2997.726,1292.706h86.038c1.438,0,2.612-1.176,2.612-2.612v-1.16
					c0-1.438-1.175-2.613-2.612-2.613h-86.038c-1.437,0-2.612,1.176-2.612,2.613v1.16
					C2995.113,1291.53,2996.289,1292.706,2997.726,1292.706z"/>
			</g>
		</g>
		<g>
			<rect x="1544.094" y="157.53" style="fill:#D2E4FF;" width="977.088" height="1473.558"/>
			<rect x="1638.502" y="239.955" style="fill:#F3F9FF;" width="786.671" height="876.837"/>
			
				<ellipse transform="matrix(0.7071 -0.7071 0.7071 0.7071 -461.5407 1679.6128)" style="fill:#F3F9FF;" cx="1796.702" cy="1396.935" rx="141.478" ry="141.478"/>
			<path style="fill:#EE9849;" d="M1916.292,1396.936c0-66.047-53.538-119.597-119.585-119.597
				c-66.059,0-119.596,53.55-119.596,119.597s53.538,119.597,119.596,119.597c27.284,0,52.423-9.128,72.531-24.509l-72.531-95.088
				l111.755,42.653C1913.516,1426.341,1916.292,1411.965,1916.292,1396.936z"/>
			
				<ellipse transform="matrix(0.2298 -0.9732 0.9732 0.2298 395.6282 3293.7678)" style="fill:#F3F9FF;" cx="2278.74" cy="1396.935" rx="141.478" ry="141.478"/>
			<path style="fill:#EE9849;" d="M2278.742,1277.339c-66.059,0-119.597,53.55-119.597,119.597
				c0,32.689,13.103,62.301,34.362,83.889l85.234-83.889l111.754,42.653c5.055-13.248,7.83-27.624,7.83-42.653
				C2398.326,1330.889,2344.788,1277.339,2278.742,1277.339z"/>
			<g>
				<path style="fill:#DD7C2C;" d="M2261.264,1336.222h-50.907c-2,0-3.637,1.637-3.637,3.637l0,0c0,2,1.637,3.636,3.637,3.636
					h50.907c2,0,3.637-1.636,3.637-3.636l0,0C2264.9,1337.858,2263.264,1336.222,2261.264,1336.222z"/>
				<path style="fill:#DD7C2C;" d="M2261.264,1347.736h-50.907c-2,0-3.637,1.637-3.637,3.637s1.637,3.637,3.637,3.637h50.907
					c2,0,3.637-1.637,3.637-3.637S2263.264,1347.736,2261.264,1347.736z"/>
				<path style="fill:#DD7C2C;" d="M2231.379,1359.252h-21.022c-2,0-3.637,1.636-3.637,3.636s1.637,3.637,3.637,3.637h21.022
					c2,0,3.636-1.637,3.636-3.637S2233.379,1359.252,2231.379,1359.252z"/>
			</g>
			<g>
				<path style="fill:#DD7C2C;" d="M1778.247,1336.222h-50.908c-2,0-3.636,1.637-3.636,3.637l0,0c0,2,1.636,3.636,3.636,3.636
					h50.908c2,0,3.636-1.636,3.636-3.636l0,0C1781.883,1337.858,1780.247,1336.222,1778.247,1336.222z"/>
				<path style="fill:#DD7C2C;" d="M1778.247,1347.736h-50.908c-2,0-3.636,1.637-3.636,3.637s1.636,3.637,3.636,3.637h50.908
					c2,0,3.636-1.637,3.636-3.637S1780.247,1347.736,1778.247,1347.736z"/>
				<path style="fill:#DD7C2C;" d="M1748.362,1359.252h-21.023c-2,0-3.636,1.636-3.636,3.636s1.636,3.637,3.636,3.637h21.023
					c2,0,3.636-1.637,3.636-3.637S1750.362,1359.252,1748.362,1359.252z"/>
			</g>
			<g>
				<rect x="1708.552" y="553.319" style="fill:#A6C7F9;" width="83.013" height="517.116"/>
				<rect x="1844.55" y="409.178" style="fill:#A6C7F9;" width="83.013" height="661.258"/>
				<rect x="1992.944" y="678.373" style="fill:#A6C7F9;" width="83.013" height="392.062"/>
				<rect x="2137.342" y="497.46" style="fill:#A6C7F9;" width="83.013" height="572.975"/>
				<rect x="2282.49" y="755.111" style="fill:#A6C7F9;" width="83.013" height="315.325"/>
			</g>
			<g>
				<path style="fill:#A6C7F9;" d="M2216.416,422.915h-70.301c-4,0-7.272,3.272-7.272,7.272s3.272,7.272,7.272,7.272h70.301
					c4,0,7.273-3.272,7.273-7.272S2220.416,422.915,2216.416,422.915z"/>
				<path style="fill:#A6C7F9;" d="M2162.127,449.378h-16.012c-4,0-7.272,3.273-7.272,7.273s3.272,7.272,7.272,7.272h16.012
					c4,0,7.272-3.272,7.272-7.272S2166.127,449.378,2162.127,449.378z"/>
				<path style="fill:#A6C7F9;" d="M1926.728,310.292h-70.301c-4,0-7.272,3.272-7.272,7.272s3.272,7.272,7.272,7.272h70.301
					c4,0,7.272-3.272,7.272-7.272S1930.728,310.292,1926.728,310.292z"/>
				<path style="fill:#A6C7F9;" d="M1872.438,336.755h-16.011c-4,0-7.272,3.272-7.272,7.272l0,0c0,4,3.272,7.272,7.272,7.272h16.011
					c4,0,7.272-3.272,7.272-7.272l0,0C1879.71,340.028,1876.438,336.755,1872.438,336.755z"/>
				<path style="fill:#A6C7F9;" d="M2069.602,601.192h-70.301c-4,0-7.273,3.272-7.273,7.272s3.273,7.273,7.273,7.273h70.301
					c4,0,7.272-3.273,7.272-7.273S2073.602,601.192,2069.602,601.192z"/>
				<path style="fill:#A6C7F9;" d="M2015.312,627.656h-16.011c-4,0-7.273,3.272-7.273,7.272l0,0c0,4,3.273,7.272,7.273,7.272h16.011
					c4,0,7.272-3.272,7.272-7.272l0,0C2022.584,630.929,2019.312,627.656,2015.312,627.656z"/>
				<path style="fill:#A6C7F9;" d="M2359.147,678.373h-70.302c-3.999,0-7.272,3.273-7.272,7.273c0,4,3.273,7.272,7.272,7.272h70.302
					c4,0,7.272-3.273,7.272-7.272C2366.42,681.646,2363.147,678.373,2359.147,678.373z"/>
				<path style="fill:#A6C7F9;" d="M2304.857,704.837h-16.012c-3.999,0-7.272,3.273-7.272,7.273c0,4,3.273,7.272,7.272,7.272h16.012
					c4,0,7.272-3.273,7.272-7.272C2312.13,708.11,2308.857,704.837,2304.857,704.837z"/>
			</g>
		</g>
		<g>
			<rect x="698.129" y="716.092" style="fill:#AED3FF;" width="714.111" height="402.024"/>
			<rect x="721.35" y="716.092" style="fill:#D2E4FF;" width="714.111" height="402.024"/>
			
				<ellipse transform="matrix(0.7071 -0.7071 0.7071 0.7071 -373.5868 914.1247)" style="fill:#F3F9FF;" cx="916.653" cy="908.021" rx="129.119" ry="129.119"/>
			<g>
				<path style="fill:#F3F9FF;" d="M1355.186,835.892h-213.9c-7.752,0-14.094,6.342-14.094,14.094l0,0
					c0,7.752,6.342,14.094,14.094,14.094h213.9c7.752,0,14.094-6.342,14.094-14.094l0,0
					C1369.28,842.234,1362.938,835.892,1355.186,835.892z"/>
				<path style="fill:#F3F9FF;" d="M1355.186,893.927h-213.9c-7.752,0-14.094,6.342-14.094,14.094l0,0
					c0,7.752,6.342,14.094,14.094,14.094h213.9c7.752,0,14.094-6.342,14.094-14.094l0,0
					C1369.28,900.269,1362.938,893.927,1355.186,893.927z"/>
				<path style="fill:#F3F9FF;" d="M1355.186,951.962h-213.9c-7.752,0-14.094,6.343-14.094,14.094
					c0,7.752,6.342,14.094,14.094,14.094h213.9c7.752,0,14.094-6.342,14.094-14.094
					C1369.28,958.305,1362.938,951.962,1355.186,951.962z"/>
			</g>
			<path style="fill:#A8D29F;" d="M798.435,906.146h118.22v-118.22C851.367,787.926,798.435,840.857,798.435,906.146z"/>
			<path style="fill:#F1A34F;" d="M1034.873,909.951H916.655h-0.003H798.435c0,65.288,52.931,118.218,118.218,118.22l0,0
				c0.001,0,0.001,0,0.001,0c0.001,0,0.001,0,0.002,0l0,0C981.942,1028.169,1034.873,975.238,1034.873,909.951z"/>
			<g>
				<path style="fill:#82B378;" d="M896.235,845.367h-64.16c-3.65,0-6.637,2.987-6.637,6.638c0,3.65,2.987,6.637,6.637,6.637h64.16
					c3.651,0,6.637-2.986,6.637-6.637C902.872,848.354,899.886,845.367,896.235,845.367z"/>
				<path style="fill:#82B378;" d="M846.688,869.519h-14.613c-3.65,0-6.637,2.987-6.637,6.637c0,3.65,2.987,6.637,6.637,6.637
					h14.613c3.65,0,6.637-2.987,6.637-6.637C853.325,872.506,850.338,869.519,846.688,869.519z"/>
			</g>
			<g>
				<path style="fill:#DD8936;" d="M991.489,938.852h-64.16c-3.65,0-6.637,2.986-6.637,6.637c0,3.65,2.987,6.637,6.637,6.637h64.16
					c3.65,0,6.637-2.987,6.637-6.637C998.126,941.838,995.139,938.852,991.489,938.852z"/>
				<path style="fill:#DD8936;" d="M941.941,963.003h-14.612c-3.65,0-6.637,2.987-6.637,6.637l0,0c0,3.65,2.987,6.638,6.637,6.638
					h14.612c3.65,0,6.637-2.987,6.637-6.638l0,0C948.579,965.99,945.592,963.003,941.941,963.003z"/>
			</g>
		</g>
		<g>
			<path style="fill:#AED3FF;" d="M647.833,1190.109v411.148h714.111v-411.148H647.833z"/>
			<path style="fill:#D2E4FF;" d="M671.054,1190.109v411.148h714.111v-411.148H671.054z"/>
			<circle style="fill:#F3F9FF;" cx="866.349" cy="1382.987" r="129.119"/>
			<g>
				<path style="fill:#F3F9FF;" d="M1090.981,1339.047h213.9c7.752,0,14.094-6.343,14.094-14.095s-6.342-14.095-14.094-14.095
					h-213.9c-7.752,0-14.094,6.343-14.094,14.095S1083.229,1339.047,1090.981,1339.047z"/>
				<path style="fill:#F3F9FF;" d="M1304.881,1368.893h-213.9c-7.752,0-14.094,6.343-14.094,14.095s6.342,14.094,14.094,14.094
					h213.9c7.752,0,14.094-6.342,14.094-14.094S1312.633,1368.893,1304.881,1368.893z"/>
				<path style="fill:#F3F9FF;" d="M1304.881,1426.928h-213.9c-7.752,0-14.094,6.343-14.094,14.095l0,0
					c0,7.751,6.342,14.094,14.094,14.094h213.9c7.752,0,14.094-6.343,14.094-14.094l0,0
					C1318.976,1433.271,1312.633,1426.928,1304.881,1426.928z"/>
			</g>
			<path style="fill:#F1A34F;" d="M866.351,1385.084l-118.209-1.504c-0.011,0.498-0.011,1.006-0.011,1.504
				c0,65.288,52.932,118.221,118.22,118.221c23.341,0,45.1-6.771,63.429-18.452L866.351,1385.084z"/>
			<g>
				<path style="fill:#DD8936;" d="M870.705,1422.309h-64.16c-3.65,0-6.637,2.986-6.637,6.637v0.001c0,3.65,2.987,6.637,6.637,6.637
					h64.16c3.65,0,6.637-2.986,6.637-6.637v-0.001C877.342,1425.295,874.355,1422.309,870.705,1422.309z"/>
				<path style="fill:#DD8936;" d="M821.157,1446.461h-14.613c-3.65,0-6.637,2.986-6.637,6.637s2.987,6.638,6.637,6.638h14.613
					c3.65,0,6.637-2.987,6.637-6.638S824.808,1446.461,821.157,1446.461z"/>
			</g>
		</g>
		<g>
			<rect x="647.833" y="277.64" style="fill:#AED3FF;" width="714.121" height="372.571"/>
			<rect x="671.054" y="277.64" style="fill:#D2E4FF;" width="714.111" height="372.571"/>
			
				<ellipse transform="matrix(0.7071 -0.7071 0.7071 0.7071 -78.1674 750.0859)" style="fill:#F3F9FF;" cx="866.35" cy="469.399" rx="129.119" ry="129.119"/>
			<path style="fill:#A8D29F;" d="M866.352,351.191c-65.288,0-118.22,52.921-118.22,118.209c0,44.724,24.845,83.651,61.483,103.729
				c18.938-35.077,56.737-103.729,56.737-103.729l55.974,104.138c37.058-19.956,62.235-59.104,62.235-104.138
				C984.562,404.112,931.641,351.191,866.352,351.191z"/>
			<g>
				<path style="fill:#F3F9FF;" d="M1304.883,397.271h-213.9c-7.751,0-14.094,6.342-14.094,14.094v0
					c0,7.752,6.343,14.094,14.094,14.094h213.9c7.751,0,14.094-6.342,14.094-14.094v0
					C1318.978,403.613,1312.635,397.271,1304.883,397.271z"/>
				<path style="fill:#F3F9FF;" d="M1304.883,455.305h-213.9c-7.751,0-14.094,6.342-14.094,14.094
					c0,7.752,6.343,14.094,14.094,14.094h213.9c7.751,0,14.094-6.342,14.094-14.094
					C1318.978,461.647,1312.635,455.305,1304.883,455.305z"/>
				<path style="fill:#F3F9FF;" d="M1304.883,513.34h-213.9c-7.751,0-14.094,6.343-14.094,14.095
					c0,7.751,6.343,14.094,14.094,14.094h213.9c7.751,0,14.094-6.342,14.094-14.094
					C1318.978,519.683,1312.635,513.34,1304.883,513.34z"/>
			</g>
			<g>
				<path style="fill:#82B378;" d="M870.706,412.94h-64.16c-3.65,0-6.637,2.987-6.637,6.637c0,3.65,2.987,6.637,6.637,6.637h64.16
					c3.65,0,6.637-2.987,6.637-6.637C877.343,415.927,874.356,412.94,870.706,412.94z"/>
				<path style="fill:#82B378;" d="M821.159,437.092h-14.612c-3.65,0-6.637,2.987-6.637,6.637l0,0c0,3.651,2.987,6.637,6.637,6.637
					h14.612c3.651,0,6.637-2.986,6.637-6.637l0,0C827.796,440.079,824.81,437.092,821.159,437.092z"/>
			</g>
		</g>
	</g>
	<g>
		<path style="fill:#E58638;" d="M1550.803,921.065c0,0,83.299,85.992,87.297,118.417c3.997,32.426-39.631,83.151-39.631,83.151
			L1550.803,921.065z"/>
		<path style="fill:#163560;" d="M1515.188,1813.132c0,0-2.834,45.715-11.679,46.37c-1.176,0.087-44.858,0.087-44.858,0.087
			l-55.762-0.323c0,0,0.365-13.436,16.665-16.276c16.299-2.84,43.581-14.296,53.455-35.839
			C1483.397,1784.487,1515.188,1813.132,1515.188,1813.132z"/>
		<path style="fill:#163560;" d="M1639.389,1813.132c0,0-2.834,45.715-11.679,46.37c-1.176,0.087-44.858,0.087-44.858,0.087
			l-55.93-0.198c0,0,0.533-13.561,16.833-16.401c16.3-2.84,43.582-14.296,53.456-35.839
			C1607.597,1784.487,1639.389,1813.132,1639.389,1813.132z"/>
		<path style="fill:#163560;" d="M1453.433,1322.903c0,0,14.584,93.274,68.988,258.853
			c54.405,165.577,61.819,237.277,61.819,237.277s14.716,2.134,30.26,2.134c9.833,0,28.104-3.771,28.104-3.771
			s0.498-180.956-24.575-264.219c-25.073-83.263-5.411-300.171-5.411-300.171L1453.433,1322.903z"/>
		<path style="fill:#1C468A;" d="M1425.032,1258.116c0,0-2.065,140.559,22.254,313.141c24.319,172.581,16.076,245.84,16.076,245.84
			s20.021,3.586,27.055,3.82c7.528,0.25,31.191-1.884,31.191-1.884s34.809-172.646,24.829-259.027s47.666-296.411,47.666-296.411
			L1425.032,1258.116z"/>
		<path style="fill:#FFB27D;" d="M1537.788,929.19l-27.472,20.347l-39.703-8.358c0.549-3.621,3.17-18.627,5.557-32.218
			c0.144-0.802,0.288-1.604,0.423-2.387c2.044-11.565,3.81-21.5,3.81-21.5l37.083-18.483l13.826-6.891
			c-0.036,0.243-1.072,12.836-1.216,14.672C1527.501,907.014,1537.788,929.19,1537.788,929.19z"/>
		<path style="fill:#E58638;" d="M1473.391,918.923c0.87-0.367,54.009-16.047,59.782-14.142c5.772,1.906,9.19,13.076,9.19,13.076
			l-86.917,19.65C1455.446,937.507,1462.287,923.598,1473.391,918.923z"/>
		<path style="fill:#EE9849;" d="M1616.483,1275.469c-9.007,41.09-158.913,45.963-197.553,8.664
			c-4.396-4.251-4.611-24.03-2.954-50.701c3.242-52.105,13.655-130.485,14.06-170.531c0.198-19.338,2.855-39.118,6.395-57.078
			c7.53-38.28,19.014-68.319,19.014-68.319s73.219-23.67,86.919-19.645C1608.368,937.251,1625.49,1234.378,1616.483,1275.469z"/>
		<path style="fill:#E58638;" d="M1415.976,1233.432c3.242-52.105,13.655-130.485,14.06-170.531
			c0.198-19.338,2.855-39.118,6.395-57.078l44.045-7.773C1480.476,998.049,1523.539,1173.94,1415.976,1233.432z"/>
		<path style="fill:#FFB27D;" d="M1439.827,1160.804c0,0,3.002,7.176-3.303,11.994s-10.394,12.625-8.95,18.329
			c1.444,5.705,15.274,15.011,20.068,13.511c4.794-1.501,14.552-9.015,13.501-12.024c-1.051-3.008,6.563-26.406-5.125-35.413
			C1444.33,1148.193,1439.827,1160.804,1439.827,1160.804z"/>
		<path style="fill:#EE9849;" d="M1489.077,926.961c0,0-42.955,8.038-77.182,58.478c-34.227,50.44-56.745,87.94-50.44,106.12
			c6.305,18.179,63.777,81.229,73.685,81.229c9.908,0,25.897-7.205,26.797-23.418c0,0-40.463-60.645-32.492-69.728
			c3.406-3.882,52.532-43.763,59.545-25.748C1500.594,1083.699,1489.077,926.961,1489.077,926.961z"/>
		<path style="fill:#FCA56B;" d="M1527.313,874.949c-8.143,15.583-38.487,29.057-51.143,34.011c0.144-0.802,0.288-1.604,0.423-2.387
			c2.044-11.565,3.81-21.5,3.81-21.5l37.083-18.483C1525.682,866.464,1530.672,868.536,1527.313,874.949z"/>
		<path style="fill:#FFB27D;" d="M1468.455,885.917c0,0,54.894,17.124,65.031-17.226c10.137-34.349,24.05-55.272-10.569-67.657
			c-34.62-12.386-45.329-1.297-51.501,9.345C1465.244,821.021,1454.438,880.577,1468.455,885.917z"/>
		<path style="fill:#163560;" d="M1473.572,807.069c0,0,3.501,39.971,11.767,38.236c8.266-1.735,15.763-3.022,14.553,9.027
			c-1.21,12.049-12.673,25.962,12.802,28.094c25.475,2.131,62.098-63.567,55.099-76.007
			C1547.601,770.528,1444.387,763.285,1473.572,807.069z"/>
	</g>
	<g>
		<polygon style="fill:#FFB27D;" points="485.25,1735.912 501.961,1806.298 526.994,1806.156 527.912,1735.912 		"/>
		<polygon style="fill:#FFB27D;" points="695.812,1738.912 743.362,1806.298 761.895,1782.502 733.276,1729.647 		"/>
		<path style="fill:#163560;" d="M572.187,810.984c-8.641-4.912-18.997-5.448-26.241-5.02c1.865-1.925,5.534-2.627,5.534-2.627
			c-4.492-0.667-14.518,3.788-14.518,3.788c-62.48-24.075-72.301,67.922-70.987,89.296c1.303,21.371-20.996,28.351-53.503,45.19
			c-62.022,32.131-67.47,75.156-67.47,75.156c0.483,0.284,0.987,0.609,1.524,0.979c3.077-5.213,9.412-15.004,14.753-16.48
			c-0.202,0.474-6.313,13.478-8.593,20.931c18.298,13.919,52.527,44.76,76.383,66.626c-0.106-4.272,0.063-10.342,1.625-13.545
			l2.947,17.748c12.765,11.735,21.569,19.991,21.569,19.991c-1.577-17.271,78.115-108.417,119.691-135.714
			c10.122-14.9,13.719-41.223,13.988-43.295c-1.747,20.871-5.318,32.578-8.509,39.17C615.589,940.774,595.092,824,572.187,810.984z"
			/>
		<path style="fill:#FFB27D;" d="M572.442,978.661c0.208,0.093-20.075,10.625-35.331,6.452
			c-14.351-3.913-23.727-22.521-23.53-22.562c6.078-1.207,7.829-9.559,7.701-45.447l2.748,0.541l46.196,9.148
			c0,0-1.051,14.538-1.082,28.233C569.112,966.526,569.809,977.433,572.442,978.661z"/>
		<path style="fill:#E37970;" d="M520.201,826.049c0,0,22.789-24.261,51.399-1.241C571.6,824.808,554.949,821.928,520.201,826.049z"
			/>
		<path style="fill:#D68D5D;" d="M570.225,926.793c0,0-1.051,14.538-1.082,28.233c-25.851-0.729-39.515-24.31-45.114-37.381
			L570.225,926.793z"/>
		<path style="fill:#163560;" d="M519.258,912.616c0,0-13.547-21.405-16.798-39.708c-2.322-13.067,4.334-61.504,53.007-54.528
			c0,0,14.137,1.393,27.425,10.368c10.568,7.138,25.819,22.547,8.767,64.813l-4.43,14.278L519.258,912.616z"/>
		<path style="fill:#80BDCC;" d="M754.35,1764.03l-24.487,0.749l-26.506,0.813c0,0-61.223-68.165-95.566-177.437
			c-0.801-2.539-1.644-5.11-2.539-7.712c-18.795-54.802-57.758-123.591-78.291-185.855c-3.267-9.917-6.203-19.252-8.835-28.088
			c-0.843-2.83-1.665-5.609-2.446-8.346c-15.131-52.575-19.513-87.095-23.55-123.977l148.266,1.187
			C640.395,1235.364,664.331,1487.209,754.35,1764.03z"/>
		<path style="fill:#E7F1FD;" d="M619.639,1150.168c-0.374,70.555,10.35,100.824,10.35,100.824s-63.482,32.253-138.931,8.512
			c-0.889-0.279-62.473-14.335-62.473-14.335c1.264-2.855,12.492-50.403,13.722-53.023c15.929-34.208,28.025-49.208,29.915-59.725
			c3.504-19.634,3.581-39.949,1.835-59.11c-4.603-50.722-18.296-92.827-18.296-92.827c20.558-4.678,40.342-12.678,61.739-20.702
			c4.922,6.128,19.435,12.323,32.486,12.03c15.029-0.331,19.723-6.686,19.171-13.846c16.016,8.912,28.747,17.388,28.747,17.388
			c13.612,23.644,41.218,46.604,43.217,82.874C641.616,1067.146,619.649,1148.192,619.639,1150.168z"/>
		<path style="fill:#5F9AA8;" d="M492.128,1158.033c-6.481,9.173-18.907,64.927-49.821,71.936
			c15.929-39.736,28.025-57.159,29.915-69.376c3.504-22.807,3.581-46.404,1.835-68.662c10.349-18.138,18.072-30.573,18.072-30.573
			c0.813-2.934,16.446-51.272,21.456-8.064C518.582,1096.512,499.368,1147.772,492.128,1158.033z"/>
		<path style="fill:#FFB27D;" d="M578.858,939.761c0,0-61.162,1.009-61.204-37.089s-7.965-63.626,31.084-65.881
			c39.049-2.255,46.652,12.274,49.759,24.987C601.604,874.491,594.767,938.517,578.858,939.761z"/>
		<path style="fill:#163560;" d="M596.679,840.595c-9.439-11.44-16.576-8.953-20.583-5.517c-13.217-19.75-54.991,8.812-54.991,8.812
			c-4.091,27.336-23.804,42.996-23.804,42.996s11.148,6.886,36.848,0.277c20.226-5.201,34.903-33.988,40.239-46.017
			c3.637,3.232,11.312,10.704,13.612,18.021c3.049,9.702,4.42,29.674,10.241,28.994C598.241,888.16,610.857,857.78,596.679,840.595z
			"/>
		<path style="fill:#FFB27D;" d="M501.121,1802.363c0,0,2.016,13.941-3.187,28.857c0,0-4.098,18.668,14.288,19.015
			c18.385,0.347,22.895-1.388,20.814-12.835c-2.081-11.447-6.041-31.244-6.041-31.244L501.121,1802.363z"/>
		<path style="fill:#C45446;" d="M534.77,1859.396c0,0-0.02,0.011-0.06,0.042h-38.04c-0.04-0.031-0.06-0.042-0.06-0.042
			c-2.08-9.764,1.32-28.155,1.32-28.155c20.82,19.904,33.85-0.5,33.85-0.5C535.16,1839.252,534.77,1859.396,534.77,1859.396z"/>
		<path style="fill:#FFB27D;" d="M806.2,1840.141c0,0-33.898-38.494-44.305-57.639l-25.205,12.913l56.341,52.912l13.182-1.734
			L806.2,1840.141z"/>
		<path style="fill:#C45446;" d="M826.99,1859.33h-47.03c-4.14-3.73-8.09-11.25-12.93-21.11c-2.77-5.649-8.98-8.76-15.35-10.47
			v31.58h-9.73l-9.01-33.58c-6-11.25-1.493-21.568,2.727-30.458c4.91-0.011,19.153,3.538,44.193,32.308
			c8.23,9.45,17.31,12.82,26.34,12.541c0.12,0.079,0.25,0.149,0.37,0.199C820.83,1846.88,825.48,1854.92,826.99,1859.33z"/>
		<path style="fill:#E37970;" d="M824.71,1002.99c0,0-40.15,22.449-54.49,28.92c-5.1,2.3-14.34,6.6-23.78,11.01
			c-5.7,2.66-11.47,5.37-16.46,7.72c-8.43,3.96-18.46,1.79-24.52-5.29c-21.739-25.384-78-80.4-136.102-87.297l-0.201-0.087
			c0,0,0.009,0.022,0.026,0.065c-0.024-0.003-0.049-0.006-0.073-0.009l0.321,0.625c3.266,8.122,35.117,87.703,36.104,104.487
			c1.041,17.691,4.163,289.31,4.163,289.31s-2.081,12.488,21.854,7.284c23.936-5.203,30.18-10.406,30.18-10.406
			s-22.895-167.55-16.651-225.828c1.225-11.436,0.12-24.288-2.438-37.559c35.385,21.433,77.106,30.967,77.106,30.967
			s15.56-6.79,39.74-21.771c10.15-6.3,21.922-16.342,33.51-26.963c14-12.834,38.09-43.837,38.09-43.837L824.71,1002.99z"/>
		<path style="fill:#5F9AA8;" d="M729.863,1764.779l-26.506,0.813c0,0-61.223-68.165-95.566-177.437
			c-0.801-2.539-1.644-5.11-2.539-7.712c-18.795-54.802-57.758-123.591-78.291-185.855c-3.267-9.917-6.203-19.252-8.835-28.088
			c-0.843-2.83-1.665-5.609-2.446-8.346l21.833-16.568c0,0,65.553,106.15,85.846,206.045
			C640.988,1634.403,711.588,1738.814,729.863,1764.779z"/>
		<path style="fill:#80BDCC;" d="M539.792,1556.935c0.375,48.579-2.082,160.265-8.409,206.503h-23.478
			c-12.977,0-19.45-0.188-19.45-0.188c-15.871-80.393-27.162-146.913-35.383-204.234c-6.743-47.038-12.738-87.365-17.348-122.082
			c-4.641-34.936-7.867-64.189-9.022-88.905c-0.177-3.893-0.312-7.681-0.385-11.354c-0.073-3.694-0.094-7.284-0.063-10.771
			l128.108-12.488C552.749,1398.532,539.584,1528.701,539.792,1556.935z"/>
		<path style="fill:#5F9AA8;" d="M507.906,1763.438c-12.977,0-19.45-0.188-19.45-0.188
			c-15.871-80.393-27.162-146.913-35.383-204.234c-6.743-47.038-12.738-87.365-17.348-122.082
			c-4.641-34.936-7.867-64.189-9.022-88.905l47.007,27.65c0,0-30.003,10.584-18.555,90.717
			C466.602,1546.527,491.973,1752.094,507.906,1763.438z"/>
		<path style="fill:#E37970;" d="M513.956,1347.239c0,0-9.023,32.604-40.243,28.441s-75.616-22.896-75.616-22.896
			s13.342-42.157,29.93-97.543c20.085-67.051,44.947-153.49,56.665-208.011c3.289-15.277,5.537-28.036,6.369-37.174l26.44-50.276
			c0,0,38.083,86.7,40.164,108.555C559.746,1090.19,513.956,1347.239,513.956,1347.239z"/>
		<path style="fill:#FFB27D;" d="M625.456,1092.73c-15.026,1.975-20.788,9.961-22.643,20.733
			c-1.001,5.813-3.996,11.557-6.542,15.617c-14.968,0.802-50.613,2.743-80.561,4.639l-2.47,39.28
			c24.601-3.063,54.834-9.305,89.626-21.214c2.673-0.458,6.015-2.117,10.2-5.545c21.56-17.658,33.798-47.229,33.836-51.463
			C646.941,1090.543,640.482,1090.756,625.456,1092.73z"/>
		<path style="fill:#C45446;" d="M512.571,1114.126c-1.395,35.384-9.72,104.068-83.952,140.836c-0.198,0.093-0.396,0.197-0.593,0.28
			c20.085-67.051,44.947-153.49,56.665-208.011C498.325,1067.607,513.331,1094.645,512.571,1114.126z"/>
		<path style="fill:#E37970;" d="M517.5,959.781c0,0-63.498,4.502-78.761,38.498c-15.263,33.995-20.12,147.083-0.694,180.385
			c0,0,26.745,7.617,74.048-1.229c0.58-0.108,1.163-0.219,1.748-0.332c0,0,15.09-36.945,1.561-44.229c0,0-39.892,2.081-35.73-11.101
			S517.5,959.781,517.5,959.781z"/>
		<g>
			<path style="fill:#FFB27D;" d="M867.756,976.308c-34.163-4.39-42.785,26.684-42.785,26.684l6.378,21.342
				c10.53,1.454,19.745-1.29,28.235-13.44c8.49-12.149,10.828-7.484,16.225-16.525C883.132,982.105,871.676,977.536,867.756,976.308
				z"/>
			<path style="fill:#FFB27D;" d="M770.22,1031.91c-5.1,2.3-14.34,6.6-23.78,11.01c5.05,8.97,11.37,25.27,13.05,52.21
				c10.15-6.3,23.292-16.786,34.51-27.797c18-17.666,37.09-43.003,37.09-43.003l-6.38-21.34
				C824.71,1002.99,784.56,1025.439,770.22,1031.91z"/>
		</g>
	</g>
	<g>
		<g>
			<path style="fill:#E49963;" d="M2582.452,1279.438c0,0-24.292,6.239-39.734,1.587c-15.443-4.652-42.021,2.988-46.301,8.619
				s-2.708,7.868,4.93,9.812s34.696,13.484,52.479,6.805s40.978-6.923,40.978-6.923L2582.452,1279.438z"/>
			<path style="fill:#4A75CB;" d="M2792.4,1068.416c0,0-27.29,193.955-72.477,211.328c-22.297,8.571-120.836,28.002-149.984,29.954
				c0,0-7.141-5.793-5.401-29.371c0,0,103.24-37.902,117.906-58.515c21.828-30.677-13.551-125.324,13.839-154.136
				C2723.674,1038.865,2769.805,1026.482,2792.4,1068.416z"/>
		</g>
		<path style="fill:#2B478B;" d="M2788.914,1815.74v-42.287h66.577c1.798,0,3.267-1.47,3.267-3.267v-6.775
			c0-1.796-1.469-3.267-3.267-3.267h-66.577V1519.42c0-6.755-5.526-12.281-12.281-12.281h-13.175
			c-6.755,0-12.281,5.526-12.281,12.281v240.725H2684.6c-1.797,0-3.268,1.471-3.268,3.267v6.775c0,1.797,1.471,3.267,3.268,3.267
			h66.577v42.287c-48.171,3.642-86.765,20.983-97.592,43.391h232.921C2875.68,1836.724,2837.085,1819.382,2788.914,1815.74z"/>
		<path style="fill:#163560;" d="M2783.203,1477.042c-7.96,13.504-17.167,26.157-26.657,38.141
			c-29.33,37.026-61.257,67.556-66.819,96.414c-1.105,5.751-2.861,11.945-5.156,18.471c-2.322,6.61-5.193,13.561-8.508,20.746
			c-12.446,27.036-31.059,57.329-49.643,84.865c-32.125,47.603-62.333,87.323-62.333,87.323l-55.399-2.361
			c2.219-5.552,26.381-71.279,58.704-151.602c13.126-32.607,27.083-67.291,40.549-100.738c1.794-4.467,3.588-8.915,5.363-13.324
			c4.117-10.237,8.169-20.313,12.125-30.124c30.351-75.422,54.524-135.479,54.524-135.479s121.305-45.952,133.902-16.176
			C2824.243,1397.749,2815.782,1421.801,2783.203,1477.042z"/>
		<path style="fill:#163560;" d="M2562.355,1812.93c0,0-2.834,45.715-11.679,46.37c-1.177,0.087-44.858,0.087-44.858,0.087
			l-55.762-0.323c0,0,0.365-13.436,16.664-16.276c16.3-2.84,43.582-14.295,53.455-35.838
			C2530.563,1784.285,2562.355,1812.93,2562.355,1812.93z"/>
		<path style="fill:#163560;" d="M2690.637,1682.331c0,0,38.533,24.761,34.794,32.802c-0.497,1.07-21.792,39.21-21.792,39.21
			l-27.466,48.529c0,0-11.554-6.868-6.088-22.485c5.466-15.615,8.765-45.021-5.232-64.144
			C2650.129,1696.125,2690.637,1682.331,2690.637,1682.331z"/>
		<path style="fill:#1C468A;" d="M2638.5,1367.563c0,0-152.261,94.844-169.258,158.581
			c-16.996,63.737,202.544,199.711,202.544,199.711s24.079-21.246,28.328-36.826c0,0-99.235-118.891-120.762-145.541
			c-13.22-16.368,195.474-56.661,220.968-96.319c25.495-39.659,16.368-73.027,16.368-73.027L2638.5,1367.563z"/>
		<path style="fill:#EE9849;" d="M2925.856,1489.352h-311.622c-6.232,0-11.331,5.099-11.331,11.331v62.324
			c0,6.232,5.099,11.332,11.331,11.332h311.622c6.232,0,11.332-5.1,11.332-11.332v-62.324
			C2937.188,1494.45,2932.089,1489.352,2925.856,1489.352z"/>
		<path style="fill:#E49963;" d="M2708.908,1035.169c-14.955,9.263-23.195,21.021-23.195,21.021
			c36.477,9.436,96.947-24.366,96.947-24.366s-23.479-15.776-32.178-50.441c-0.44-1.749-0.842-3.542-1.195-5.377
			c-1.14-5.838-1.848-12.159-1.975-18.98l-16.757,15.011l-27.863,24.962c0,0,0.632,10.358,4.118,28.175
			C2707.416,1028.281,2708.111,1031.617,2708.908,1035.169z"/>
		<path style="fill:#739AF0;" d="M2821.114,1207.254c-5.225,70.274,3.563,177.111-2.364,195.621
			c-5.116,15.97-65.315,6.518-88.58,1.185c-8.611-1.973-19.042-4.792-29.814-8.124c-30.047-9.305-62.788-22.59-66.301-32.453
			c-0.136-0.387-0.252-0.766-0.324-1.135c-0.324-1.432-0.252-2.773,0.063-4.134c1.172-5.026,5.684-10.467,6.215-22.914
			c0.595-13.898,0.505-30.265,1.027-47.864c0.027-1.981,0.054-4.143,0.27-6.115l0.01-0.721c0.009-0.379,0.018-0.748,0.026-1.126
			c0.505-19.627,1.531-40.262,2.721-60.727c0.757-12.853,1.63-25.58,2.639-37.775c2.621-31.479,6.152-59.474,10.826-77.173
			c7.639-28.85,24.481-47.666,39.813-61.456l11.088-9.511c12.375,2.701,27.003,0.909,40.234-5.359
			c14.321-6.801,19.266-11.674,21.761-9.836C2803.496,1043.153,2827.284,1121.345,2821.114,1207.254z"/>
		<path style="fill:#4A75CB;" d="M2700.527,1396.076c-30.047-9.305-62.788-22.59-66.301-32.453
			c-0.136-0.387-0.252-0.766-0.324-1.135c0.018-1.378,0.035-2.756,0.063-4.134c1.171-5.026,5.684-10.467,6.215-22.914
			c0.595-13.898,0.505-30.265,1.027-47.864c0.027-1.981,0.054-4.143,0.271-6.115l0.009-0.721c0.009-0.379,0.018-0.748,0.026-1.126
			l113.499-51.476C2755.012,1228.139,2761.551,1319.615,2700.527,1396.076z"/>
		<path style="fill:#D68D5D;" d="M2702.692,996.997c0,0,0.632,10.358,4.118,28.175c27.207-8.791,39.551-33.366,43.672-43.79
			c1.172-2.945,1.681-4.765,1.681-4.765s-1.056-0.228-2.876-0.612c-3.824-0.813-11.026-2.341-18.731-3.97L2702.692,996.997z"/>
		<path style="fill:#E49963;" d="M2691.678,996.724c0,0,59.775,6.742,63.401-30.547c3.625-37.29,13.782-61.534-24.229-67.416
			c-38.012-5.881-46.822,7.626-51.06,19.778C2675.553,930.691,2676.222,994.009,2691.678,996.724z"/>
		<path style="fill:#2B478B;" d="M2754.821,968.75c0,0-3.79-49.499-58.202-54.625c-37.27-3.512-16.491-35.589-12.519-40.705
			c0,0,28.555,3.915,57.823,8.751C2803.357,892.32,2760.854,961.044,2754.821,968.75z"/>
		<g>
			
				<rect x="2437.851" y="1188.359" transform="matrix(0.9511 -0.309 0.309 0.9511 -270.037 815.9176)" style="fill:#4A75CB;" width="5.502" height="144.061"/>
			
				<rect x="2460.131" y="1319.088" transform="matrix(0.9998 -0.0214 0.0214 0.9998 -27.6889 54.4551)" style="fill:#4A75CB;" width="151.174" height="9.044"/>
		</g>
		<g>
			<path style="fill:#E49963;" d="M2594.954,1309.257c0,0-23.457,8.88-39.318,5.958c-15.861-2.921-41.435,7.603-45.067,13.672
				c-3.633,6.067-1.825,8.118,5.98,9.207c7.806,1.09,35.972,9.578,52.91,0.979c16.939-8.6,39.965-11.398,39.965-11.398
				L2594.954,1309.257z"/>
			<path style="fill:#739AF0;" d="M2780.357,1076.375c0,0-5.74,195.781-48.737,218.029
				c-21.215,10.979-117.012,41.154-145.767,46.308c0,0-7.736-4.97-8.606-28.597c0,0,98.432-49.053,110.736-71.157
				c18.313-32.896-27.285-123.065-3.238-154.722C2708.791,1054.581,2753.276,1037.188,2780.357,1076.375z"/>
		</g>
	</g>
	<path style="fill:#202F4E;" d="M3441.829,1865.366H377.21c-1.644,0-2.99-1.346-2.99-2.989l0,0c0-1.645,1.346-2.99,2.99-2.99
		h3064.62c1.645,0,2.989,1.346,2.989,2.99l0,0C3444.818,1864.021,3443.474,1865.366,3441.829,1865.366z"/>
</g>
</svg>
